HIERARCHY
ROOT ui
{
	 OFFSET 0 0 0
	 CHANNELS 3 XPosition YPosition Z Position
	 EndSite
	 {
	 OFFSET 0 -1 0
	 }
}
ROOT li
{
	 OFFSET 0 0 0
	 CHANNELS 3 XPosition YPosition Z Position
	 EndSite
	 {
	 OFFSET 0 -1 0
	 }
}
ROOT ul
{
	 OFFSET 0 0 0
	 CHANNELS 3 XPosition YPosition Z Position
	 EndSite
	 {
	 OFFSET 0 -1 0
	 }
}
ROOT ll
{
	 OFFSET 0 0 0
	 CHANNELS 3 XPosition YPosition Z Position
	 EndSite
	 {
	 OFFSET 0 -1 0
	 }
}
ROOT tt
{
	 OFFSET 0 0 0
	 CHANNELS 3 XPosition YPosition Z Position
	 EndSite
	 {
	 OFFSET 0 -1 0
	 }
}
ROOT tb
{
	 OFFSET 0 0 0
	 CHANNELS 3 XPosition YPosition Z Position
	 EndSite
	 {
	 OFFSET 0 -1 0
	 }
}
ROOT td
{
	 OFFSET 0 0 0
	 CHANNELS 3 XPosition YPosition Z Position
	 EndSite
	 {
	 OFFSET 0 -1 0
	 }
}
ROOT v
{
	 OFFSET 0 0 0
	 CHANNELS 3 XPosition YPosition Z Position
	 EndSite
	 {
	 OFFSET 0 -1 0
	 }
}
ROOT bn
{
	 OFFSET 0 0 0
	 CHANNELS 3 XPosition YPosition Z Position
	 EndSite
	 {
	 OFFSET 0 -1 0
	 }
}
MOTION
Frames: 19
Frame Time: 0.002
-0.004127754211425781	-1.7852699756622315E-4	0		0.5182157592773438	-2.42507421875	0		-1.053965087890625	0.02037710380554199	0		-0.5556201171875	-2.40425439453125	0		1.481705078125	-0.6595713500976562	0		3.321249267578125	-0.25679278564453123	0		4.638216796875	-0.08527677917480468	0		5.67232421875	0.08714400482177734	0		-0.23822996520996093	5.89775537109375	0		
0.017970436096191405	-0.003483041048049927	0		0.5782736206054687	-2.44177197265625	0		-1.058877197265625	0.01632341766357422	0		-0.6303467407226563	-2.400519775390625	0		1.5125679931640625	-0.6869091186523437	0		3.329468994140625	-0.2498011474609375	0		4.6272109375	-0.0980189208984375	0		5.65816162109375	0.08782989501953126	0		-0.27340435791015627	5.8930654296875	0		
-0.0058888840675354005	-2.8523498773574827E-4	0		0.5105275268554688	-2.43707080078125	0		-1.0837371826171875	0.019488128662109375	0		-0.5822434692382813	-2.410134033203125	0		1.5227127685546875	-0.6860214233398437	0		3.31841162109375	-0.26560882568359373	0		4.63038671875	-0.09192778015136718	0		5.6710576171875	0.0825813217163086	0		-0.25745248413085936	5.900814453125	0		
0.023247867584228515	0.003333430051803589	0		0.5847766723632812	-2.43192236328125	0		-1.0416019287109375	0.022924047470092773	0		-0.6169998168945312	-2.404841064453125	0		1.524866455078125	-0.68305029296875	0		3.334798583984375	-0.2397227325439453	0		4.628626953125	-0.07879478454589844	0		5.66271240234375	0.11420223236083984	0		-0.2245200958251953	5.9063798828125	0		
-0.00465435791015625	0.00357354211807251	0		0.5170499267578125	-2.423228759765625	0		-1.0575382080078124	0.019996381759643553	0		-0.5628648071289063	-2.409512939453125	0		1.512976806640625	-0.683930419921875	0		3.302731689453125	-0.2553208160400391	0		4.63466015625	-0.08475978088378906	0		5.6698017578125	0.08829642486572266	0		-0.2767821960449219	5.8928720703125	0		
0.017409204483032226	-7.272940278053283E-4	0		0.568158447265625	-2.430826171875	0		-1.0584305419921876	0.019909759521484376	0		-0.6297498168945312	-2.415869140625	0		1.4834443359375	-0.6526214599609375	0		3.325911865234375	-0.2495252685546875	0		4.62277197265625	-0.08454193115234375	0		5.65562060546875	0.08887630462646484	0		-0.24381385803222655	5.89744287109375	0		
-0.00946019744873047	-4.968279898166656E-4	0		0.523330078125	-2.433385009765625	0		-1.059302001953125	0.019827774047851562	0		-0.5606392211914063	-2.42469287109375	0		1.5161917724609375	-0.6899923706054687	0		3.329972412109375	-0.2565302734375	0		4.62883837890625	-0.09052998352050781	0		5.6685546875	0.08872074127197266	0		-0.26380526733398435	5.90258984375	0		
0.015695579528808595	-8.255640268325805E-4	0		0.5245748291015625	-2.431441162109375	0		-1.0900574951171875	0.028072551727294923	0		-0.6313259887695313	-2.416004150390625	0		1.51841064453125	-0.686032470703125	0		3.314363525390625	-0.23532844543457032	0		4.62512744140625	-0.07842145538330078	0		5.6602275390625	0.11505171203613282	0		-0.26480831909179686	5.9025341796875	0		
-0.008068222999572754	0.003374541997909546	0		0.5258486938476562	-2.42949658203125	0		-1.0518685302734374	0.027579830169677733	0		-0.5601316528320313	-2.42183935546875	0		1.51761962890625	-0.68604150390625	0		3.32331396484375	-0.25839877319335935	0		4.6312568359375	-0.08442787933349609	0		5.67029150390625	0.10109284210205079	0		-0.23071186828613283	5.9071044921875	0		
0.01411967658996582	-9.168540239334106E-4	0		0.5381577758789062	-2.427668701171875	0		-1.091634765625	0.027928102493286134	0		-0.636839111328125	-2.42108349609375	0		1.51686767578125	-0.686051513671875	0		3.329755126953125	-0.23944300842285157	0		4.6194912109375	-0.08424795532226563	0		5.6697470703125	0.10123831939697266	0		-0.21366033935546874	5.902861328125	0		
-0.01260165023803711	-6.82070016860962E-4	0		0.5644540405273437	-2.430989013671875	0		-1.0293939208984375	0.024187738418579102	0		-0.5696094970703125	-2.4308671875	0		1.5081815185546874	-0.6839766235351562	0		3.3309091796875	-0.25143482971191405	0		4.62976953125	-0.08430867767333984	0		5.66632861328125	0.0893374481201172	0		-0.23444606018066405	5.90902685546875	0		
0.012723413467407227	-0.001001710057258606	0		0.517768798828125	-2.4365283203125	0		-1.09707470703125	0.023839567184448244	0		-0.6003383178710937	-2.44060009765625	0		1.512457763671875	-0.6900408325195313	0		3.29227490234375	-0.24800360107421876	0		4.622162109375	-0.07818182373046875	0		5.65520654296875	0.10184784698486328	0		-0.26831295776367187	5.90233251953125	0		
0.012103092193603516	-0.001042117953300476	0		0.5551077270507813	-2.44496337890625	0		-1.04467724609375	0.025213375091552734	0		-0.5629246826171875	-2.442056884765625	0		1.51489306640625	-0.6860846557617187	0		3.3394755859375	-0.26549142456054686	0		4.62240478515625	-0.09114386749267578	0		5.65476708984375	0.10196172332763671	0		-0.2670677490234375	5.900265625	0		
0.01861201858520508	0.005844025135040283	0		0.5316622924804687	-2.43774853515625	0		-1.0851448974609375	0.03458010482788086	0		-0.5963909301757813	-2.436755615234375	0		1.5173719482421875	-0.6831287841796875	0		3.31132080078125	-0.2271751708984375	0		4.6140439453125	-0.0720161361694336	0		5.65727978515625	0.11583216094970702	0		-0.23466627502441406	5.9068701171875	0		
0.011027135848999024	-0.0011189639568328857	0		0.5711796264648438	-2.4392021484375	0		-1.0676361083984376	0.03633261871337891	0		-0.5699789428710937	-2.44808984375	0		1.5138409423828125	-0.6861091918945312	0		3.310505859375	-0.2561556396484375	0		4.6255546875	-0.070103759765625	0		5.6540048828125	0.10216306304931641	0		-0.2362661590576172	5.9078388671875	0		
-0.015432164192199707	-8.804829716682434E-4	0		0.5058777770996093	-2.4275419921875	0		-1.0951912841796876	0.027565101623535156	0		-0.5744536743164063	-2.45309326171875	0		1.507306640625	-0.6940584106445312	0		3.29418798828125	-0.24297157287597657	0		4.615947265625	-0.08397151184082031	0		5.6507724609375	0.0902150650024414	0		-0.2859874267578125	5.89231787109375	0		
0.010149986267089843	-0.0011930979490280152	0		0.5782605590820312	-2.450343017578125	0		-1.06255712890625	0.03216205596923828	0		-0.6128209228515625	-2.451737060546875	0		1.5069005126953126	-0.6940731811523437	0		3.3236357421875	-0.25627655029296875	0		4.6106171875	-0.0758875732421875	0		5.65047802734375	0.09029364776611327	0		-0.2723652648925781	5.9041279296875	0		
-0.01622621726989746	-9.558410048484803E-4	0		0.4990274658203125	-2.4395380859375	0		-1.091944091796875	0.03141598510742188	0		-0.602249267578125	-2.459899169921875	0		1.5126168212890625	-0.6861535034179688	0		3.311537353515625	-0.23014210510253907	0		4.61921875	-0.07795541381835938	0		5.6566064453125	0.08500933074951172	0		-0.2718471984863281	5.90207568359375	0		
0.013470415115356446	0.002688508987426758	0		0.5816487426757813	-2.44644580078125	0		-1.087257080078125	0.03430966567993164	0		-0.6025597534179687	-2.45994580078125	0		1.5122822265625	-0.6861715087890625	0		3.317900390625	-0.25820794677734377	0		4.6188759765625	-0.07793112182617187	0		5.65578564453125	0.11623005676269531	0		-0.2382099609375	5.90767431640625	0		
